<svg id="kity_svg_6" xmlns="http://www.w3.org/2000/svg" xmlns:xlink="http://www.w3.org/1999/xlink" version="1.1" width="3681" height="1135" style="background: rgb(251, 251, 251); visibility: visible;" viewBox="0 0 3681 1135"><defs id="kity_defs_7"><linearGradient id="kity_linearGradient_17" x1="0" y1="0" x2="0" y2="1"><stop id="kity_stop_18" offset="0" stop-color="rgb(255, 255, 255)"></stop><stop id="kity_stop_19" offset="1" stop-color="rgb(204, 204, 204)"></stop></linearGradient><marker id="kity_marker_2" orient="auto" refX="6" refY="0" viewBox="-7 -7 14 14" markerWidth="7" markerHeight="7" markerUnits="userSpaceOnUse"><path id="kity_path_3" fill="rgb(115, 161, 191)" stroke="none" d="M6,0A6,6,0,1,1,-6,0A6,6,0,1,1,6,0"></path></marker></defs><g id="kity_g_8"><g id="minder1" text-rendering="geometricPrecision"><g id="minder_connect_group1"><path id="kity_path_31" fill="none" stroke="rgb(115, 161, 191)" stroke-width="1" d="M619.4999443441629,60.49998287856579v30h-246V172.4999828785658"></path><path id="kity_path_35" fill="none" stroke="rgb(115, 161, 191)" stroke-width="1" d="M619.4999443441629,60.49998287856579v30h-552.5V169.4999828785658"></path><path id="kity_path_39" fill="none" stroke="rgb(115, 161, 191)" stroke-width="1" d="M619.4999443441629,60.49998287856579v30h329.5V206.4999828785658"></path><path id="kity_path_577" fill="none" stroke="rgb(115, 161, 191)" stroke-width="1" d="M67.49994434416294,195.4999828785658v20h0V230.4999828785658"></path><path id="kity_path_618" fill="none" stroke="rgb(115, 161, 191)" stroke-width="1" d="M168.49994434416294,347.4999828785658v15h0.5V377.4999828785658"></path><path id="kity_path_619" fill="none" stroke="rgb(115, 161, 191)" stroke-width="1" d="M949.4999443441629,289.4999828785658v15h-781V325.4999828785658"></path><path id="kity_path_656" fill="none" stroke="rgb(115, 161, 191)" stroke-width="1" d="M949.4999443441629,289.4999828785658v15h534V349.4999828785658"></path><path id="kity_path_657" fill="none" stroke="rgb(115, 161, 191)" stroke-width="1" d="M949.4999443441629,232.4999828785658v20h0.5V267.4999828785658"></path><path id="kity_path_658" fill="none" stroke="rgb(115, 161, 191)" stroke-width="1" d="M373.49994434416294,198.4999828785658v20h0.5V233.4999828785658"></path><path id="kity_path_668" fill="none" stroke="rgb(115, 161, 191)" stroke-width="1" d="M520.4999443441629,584.4999828785658v15h0.5V614.4999828785658"></path><path id="kity_path_669" fill="none" stroke="rgb(115, 161, 191)" stroke-width="1" d="M520.4999443441629,532.4999828785658v15h0.5V562.4999828785658"></path><path id="kity_path_670" fill="none" stroke="rgb(115, 161, 191)" stroke-width="1" d="M754.4999443441629,480.4999828785658v15h-234V510.4999828785658"></path><path id="kity_path_671" fill="none" stroke="rgb(115, 161, 191)" stroke-width="1" d="M742.4999443441629,584.4999828785658v15h0.5V614.4999828785658"></path><path id="kity_path_672" fill="none" stroke="rgb(115, 161, 191)" stroke-width="1" d="M742.4999443441629,532.4999828785658v15h0.5V562.4999828785658"></path><path id="kity_path_673" fill="none" stroke="rgb(115, 161, 191)" stroke-width="1" d="M754.4999443441629,480.4999828785658v15h-12V510.4999828785658"></path><path id="kity_path_674" fill="none" stroke="rgb(115, 161, 191)" stroke-width="1" d="M1002.4999443441629,580.4999828785658v15h0.5V610.4999828785658"></path><path id="kity_path_675" fill="none" stroke="rgb(115, 161, 191)" stroke-width="1" d="M1003.4999443441629,532.4999828785658v15h-0.5V558.4999828785658"></path><path id="kity_path_676" fill="none" stroke="rgb(115, 161, 191)" stroke-width="1" d="M754.4999443441629,480.4999828785658v15h249V510.4999828785658"></path><path id="kity_path_677" fill="none" stroke="rgb(115, 161, 191)" stroke-width="1" d="M1483.499944344163,371.4999828785658v15h-729.5V458.4999828785658"></path><path id="kity_path_703" fill="none" stroke="rgb(115, 161, 191)" stroke-width="1" d="M1483.499944344163,371.4999828785658v15h748.5V437.4999828785658"></path><path id="kity_path_771" fill="none" stroke="rgb(115, 161, 191)" stroke-width="1" d="M2232.499944344163,511.4999828785658v15h978V701.4999828785658"></path><path id="kity_path_772" fill="none" stroke="rgb(115, 161, 191)" stroke-width="1" d="M1483.499944344163,842.4999828785658v15h0.5V872.4999828785658"></path><path id="kity_path_773" fill="none" stroke="rgb(115, 161, 191)" stroke-width="1" d="M1917.499944344163,790.4999828785658v15h-434V820.4999828785658"></path><path id="kity_path_774" fill="none" stroke="rgb(115, 161, 191)" stroke-width="1" d="M1711.499944344163,842.4999828785658v15h0.5V872.4999828785658"></path><path id="kity_path_775" fill="none" stroke="rgb(115, 161, 191)" stroke-width="1" d="M1917.499944344163,790.4999828785658v15h-206V820.4999828785658"></path><path id="kity_path_776" fill="none" stroke="rgb(115, 161, 191)" stroke-width="1" d="M1932.499944344163,1063.4999828785658v15h0V1093.4999828785658"></path><path id="kity_path_777" fill="none" stroke="rgb(115, 161, 191)" stroke-width="1" d="M1931.499944344163,1011.4999828785658v15h0.5V1041.4999828785658"></path><path id="kity_path_778" fill="none" stroke="rgb(115, 161, 191)" stroke-width="1" d="M2185.499944344163,959.4999828785658v15h-253.5V989.4999828785658"></path><path id="kity_path_779" fill="none" stroke="rgb(115, 161, 191)" stroke-width="1" d="M2462.499944344163,1063.4999828785658v15h0V1093.4999828785658"></path><path id="kity_path_780" fill="none" stroke="rgb(115, 161, 191)" stroke-width="1" d="M2462.499944344163,1011.4999828785658v15h0V1041.4999828785658"></path><path id="kity_path_781" fill="none" stroke="rgb(115, 161, 191)" stroke-width="1" d="M2185.499944344163,959.4999828785658v15h277V989.4999828785658"></path><path id="kity_path_782" fill="none" stroke="rgb(115, 161, 191)" stroke-width="1" d="M2185.499944344163,907.4999828785658v15h0V937.4999828785658"></path><path id="kity_path_783" fill="none" stroke="rgb(115, 161, 191)" stroke-width="1" d="M2185.499944344163,855.4999828785658v15h0V885.4999828785658"></path><path id="kity_path_784" fill="none" stroke="rgb(115, 161, 191)" stroke-width="1" d="M1917.499944344163,790.4999828785658v15h268V833.4999828785658"></path><path id="kity_path_785" fill="none" stroke="rgb(115, 161, 191)" stroke-width="1" d="M1916.499944344163,738.4999828785658v15h0.5V768.4999828785658"></path><path id="kity_path_786" fill="none" stroke="rgb(115, 161, 191)" stroke-width="1" d="M2232.499944344163,511.4999828785658v15h-316V716.4999828785658"></path><path id="kity_path_787" fill="none" stroke="rgb(115, 161, 191)" stroke-width="1" d="M2232.499944344163,459.4999828785658v15h0.5V489.4999828785658"></path><path id="kity_path_804" fill="none" stroke="rgb(115, 161, 191)" stroke-width="1" d="M2975.499944344163,980.4999828785658v15h0.5V1010.4999828785658"></path><path id="kity_path_805" fill="none" stroke="rgb(115, 161, 191)" stroke-width="1" d="M2974.499944344163,928.4999828785658v15h0.5V958.4999828785658"></path><path id="kity_path_806" fill="none" stroke="rgb(115, 161, 191)" stroke-width="1" d="M3210.499944344163,876.4999828785658v15h-235.5V906.4999828785658"></path><path id="kity_path_807" fill="none" stroke="rgb(115, 161, 191)" stroke-width="1" d="M3446.499944344163,980.4999828785658v15h0V1010.4999828785658"></path><path id="kity_path_808" fill="none" stroke="rgb(115, 161, 191)" stroke-width="1" d="M3446.499944344163,928.4999828785658v15h0V958.4999828785658"></path><path id="kity_path_809" fill="none" stroke="rgb(115, 161, 191)" stroke-width="1" d="M3210.499944344163,876.4999828785658v15h236V906.4999828785658"></path><path id="kity_path_810" fill="none" stroke="rgb(115, 161, 191)" stroke-width="1" d="M3210.499944344163,824.4999828785658v15h0V854.4999828785658"></path><path id="kity_path_811" fill="none" stroke="rgb(115, 161, 191)" stroke-width="1" d="M3210.499944344163,723.4999828785658v15h-0.5V802.4999828785658"></path></g><g id="minder_node1"><path id="node_outline1" fill="rgb(115, 161, 191)" stroke="rgb(115, 161, 191)" d="M472.49994434416294,20.49998287856579h294a5,5,0,0,1,5,5v30a5,5,0,0,1,-5,5h-294a5,5,0,0,1,-5,-5v-30a5,5,0,0,1,5,-5z" stroke-width="3"></path><g id="node_text1" fill="white"><text id="kity_text_22" text-rendering="inherit" font-size="16" dy=".8em" y="30.09998271167278" x="491.49994434416294">LocaleResource_en_US.properties</text></g></g><g id="kity_g_14" display="none"><path id="kity_path_15" fill="rgba(0, 92, 153, 0.5)" stroke="none" d="M2490.499944344163,524.4999828785658h20v22h-20z"></path><path id="kity_path_16" fill="none" stroke="rgb(0, 76, 128)" d="M2490.499944344163,524.4999828785658L2490.499944344163,546.4999828785658" stroke-width="1"></path></g><g id="minder_node2" opacity="1"><g id="node_expander2" style="cursor: pointer;"><path id="kity_path_84" fill="white" stroke="gray" d="M379.4999408274889,165.4999866038561A6,6,0,1,1,367.4999408274889,165.4999866038561A6,6,0,1,1,379.4999408274889,165.4999866038561"></path><path id="kity_path_85" fill="none" stroke="gray" d="M368.9999408274889,165.4999866038561L377.9999408274889,165.4999866038561"></path></g><path id="node_outline3" fill="rgb(238, 243, 246)" stroke="rgb(115, 161, 191)" d="M344.49994046986103,172.49998719990253h58a3,3,0,0,1,3,3v20a3,3,0,0,1,-3,3h-58a3,3,0,0,1,-3,-3v-20a3,3,0,0,1,3,-3z" stroke-width="1"></path><g id="node_text3" fill="black"><text id="kity_text_53" text-rendering="inherit" font-size="14" dy=".8em" y="176.39998723268508" x="361.49994046986103">有#</text></g></g><g id="minder_node4" opacity="1"><g id="node_expander4" style="cursor: pointer;"><path id="kity_path_90" fill="white" stroke="gray" d="M72.99993169307709,162.49998651444912A6,6,0,1,1,60.99993169307709,162.49998651444912A6,6,0,1,1,72.99993169307709,162.49998651444912"></path><path id="kity_path_91" fill="none" stroke="gray" d="M62.49993169307709,162.49998651444912L71.49993169307709,162.49998651444912"></path></g><path id="node_outline5" fill="rgb(238, 243, 246)" stroke="rgb(115, 161, 191)" d="M35.49993126094341,169.49998711049557h63a3,3,0,0,1,3,3v20a3,3,0,0,1,-3,3h-63a3,3,0,0,1,-3,-3v-20a3,3,0,0,1,3,-3z" stroke-width="1"></path><g id="node_text5" fill="black"><text id="kity_text_57" text-rendering="inherit" font-size="14" dy=".8em" y="173.3999871432781" x="52.49993126094341">空行</text></g></g><g id="minder_node6" opacity="1"><g id="node_expander10" style="cursor: pointer;"><path id="kity_path_108" fill="white" stroke="gray" d="M954.9999579787254,199.49998761713505A6,6,0,1,1,942.9999579787254,199.49998761713505A6,6,0,1,1,954.9999579787254,199.49998761713505"></path><path id="kity_path_109" fill="none" stroke="gray" d="M944.4999579787254,199.49998761713505L953.4999579787254,199.49998761713505"></path></g><path id="node_outline11" fill="rgb(238, 243, 246)" stroke="rgb(115, 161, 191)" d="M920.4999576359987,206.4999882131815h57a3,3,0,0,1,3,3v20a3,3,0,0,1,-3,3h-57a3,3,0,0,1,-3,-3v-20a3,3,0,0,1,3,-3z" stroke-width="1"></path><g id="node_text11" fill="black"><text id="kity_text_69" text-rendering="inherit" font-size="14" dy=".8em" y="210.39998824596404" x="937.4999576359987">无#</text></g></g><g id="minder_node5"><g id="node_expander3" style="cursor: pointer;" display="none"><path id="kity_path_87" fill="white" stroke="gray" d="M72.99993169307709,224.4999883621931A6,6,0,1,1,60.99993169307709,224.4999883621931A6,6,0,1,1,72.99993169307709,224.4999883621931"></path><path id="kity_path_88" fill="none" stroke="gray"></path></g><path id="node_outline4" fill="none" stroke="none" d="M25.49993060529232,230.4999888688326h83a5,5,0,0,1,5,5v12a5,5,0,0,1,-5,5h-83a5,5,0,0,1,-5,-5v-12a5,5,0,0,1,5,-5z"></path><g id="node_text4" fill="black"><text id="kity_text_55" text-rendering="inherit" font-size="12" dy=".8em" y="233.699988942345" x="30.49993060529232">直接写入文件</text></g></g><g id="minder_node9"><g id="node_expander5" style="cursor: pointer;" display="none"><path id="kity_path_93" fill="white" stroke="gray" d="M174.99993473291397,371.4999927431345A6,6,0,1,1,162.99993473291397,371.4999927431345A6,6,0,1,1,174.99993473291397,371.4999927431345"></path><path id="kity_path_94" fill="none" stroke="gray"></path></g><path id="node_outline6" fill="none" stroke="none" d="M43.49993114173412,377.499993249774h251a5,5,0,0,1,5,5v12a5,5,0,0,1,-5,5h-251a5,5,0,0,1,-5,-5v-12a5,5,0,0,1,5,-5z" stroke-width="3"></path><g id="node_text6" fill="black"><text id="kity_text_59" text-rendering="inherit" font-size="12" dy=".8em" y="380.6999933232864" x="48.49993114173412">提示用户（实际上在文件中不存在这种情况）</text></g></g><g id="minder_node8" opacity="1"><g id="node_expander6" style="cursor: pointer;"><path id="kity_path_96" fill="white" stroke="gray" d="M174.4999347180128,319.49999119341373A6,6,0,1,1,162.4999347180128,319.49999119341373A6,6,0,1,1,174.4999347180128,319.49999119341373"></path><path id="kity_path_97" fill="none" stroke="gray" d="M163.9999347180128,319.49999119341373L172.9999347180128,319.49999119341373"></path></g><path id="node_outline7" fill="none" stroke="none" d="M86.49993242323399,325.4999917000532h164a5,5,0,0,1,5,5v12a5,5,0,0,1,-5,5h-164a5,5,0,0,1,-5,-5v-12a5,5,0,0,1,5,-5z" stroke-width="3"></path><g id="node_text7" fill="black"><text id="kity_text_61" text-rendering="inherit" font-size="12" dy=".8em" y="328.6999917735656" x="91.49993242323399">不符合正则表达式，即没有=</text></g></g><g id="minder_node10" opacity="1"><g id="node_expander8" style="cursor: pointer;"><path id="kity_path_102" fill="white" stroke="gray" d="M1489.4999739080667,343.4999919086695A6,6,0,1,1,1477.4999739080667,343.4999919086695A6,6,0,1,1,1489.4999739080667,343.4999919086695"></path><path id="kity_path_103" fill="none" stroke="gray" d="M1478.9999739080667,343.4999919086695L1487.9999739080667,343.4999919086695"></path></g><path id="node_outline9" fill="none" stroke="none" d="M1317.4999691098928,349.49999241530895h332a5,5,0,0,1,5,5v12a5,5,0,0,1,-5,5h-332a5,5,0,0,1,-5,-5v-12a5,5,0,0,1,5,-5z" stroke-width="3"></path><g id="node_text9" fill="black"><text id="kity_text_65" text-rendering="inherit" font-size="12" dy=".8em" y="352.69999248882135" x="1322.4999691098928">符合正则表达式，即有"="，用group()将"="前后内容分离：</text></g></g><g id="minder_node7"><g id="node_expander9" style="cursor: pointer;"><path id="kity_path_105" fill="white" stroke="gray" d="M955.4999579936266,261.49998946487904A6,6,0,1,1,943.4999579936266,261.49998946487904A6,6,0,1,1,955.4999579936266,261.49998946487904"></path><path id="kity_path_106" fill="none" stroke="gray" d="M944.9999579936266,261.49998946487904L953.9999579936266,261.49998946487904"></path></g><path id="node_outline10" fill="none" stroke="none" d="M850.4999551922083,267.4999899715185h198a5,5,0,0,1,5,5v12a5,5,0,0,1,-5,5h-198a5,5,0,0,1,-5,-5v-12a5,5,0,0,1,5,-5z"></path><g id="node_text10" fill="black"><text id="kity_text_67" text-rendering="inherit" font-size="12" dy=".8em" y="270.6999900450309" x="855.4999551922083">通过正则表达式识别"="两边的内容</text></g></g><g id="minder_node3"><g id="node_expander1" style="cursor: pointer;" display="none"><path id="kity_path_81" fill="white" stroke="gray" d="M379.99994084239006,227.49998845160007A6,6,0,1,1,367.99994084239006,227.49998845160007A6,6,0,1,1,379.99994084239006,227.49998845160007"></path><path id="kity_path_82" fill="none" stroke="gray"></path></g><path id="node_outline2" fill="none" stroke="none" d="M332.4999397546053,233.49998895823956h83a5,5,0,0,1,5,5v12a5,5,0,0,1,-5,5h-83a5,5,0,0,1,-5,-5v-12a5,5,0,0,1,5,-5z"></path><g id="node_text2" fill="black"><text id="kity_text_51" text-rendering="inherit" font-size="12" dy=".8em" y="236.69998903175195" x="337.4999397546053">直接写入文件</text></g></g><g id="minder_node18"><g id="node_expander17" style="cursor: pointer;" display="none"><path id="kity_path_167" fill="white" stroke="gray" d="M526.9999452233315,608.4999998062849A6,6,0,1,1,514.9999452233315,608.4999998062849A6,6,0,1,1,526.9999452233315,608.4999998062849"></path><path id="kity_path_168" fill="none" stroke="gray"></path></g><path id="node_outline18" fill="none" stroke="none" d="M473.49994395673275,614.5000003129244h95a5,5,0,0,1,5,5v12a5,5,0,0,1,-5,5h-95a5,5,0,0,1,-5,-5v-12a5,5,0,0,1,5,-5z" stroke-width="3"></path><g id="node_text18" fill="black"><text id="kity_text_164" text-rendering="inherit" font-size="12" dy=".8em" y="617.7000003864368" x="478.49994395673275">将整行写入文件</text></g></g><g id="minder_node17"><g id="node_expander16" style="cursor: pointer;"><path id="kity_path_159" fill="white" stroke="gray" d="M526.4999452084303,556.4999982565641A6,6,0,1,1,514.4999452084303,556.4999982565641A6,6,0,1,1,526.4999452084303,556.4999982565641"></path><path id="kity_path_160" fill="none" stroke="gray" d="M515.9999452084303,556.4999982565641L524.9999452084303,556.4999982565641"></path></g><path id="node_outline17" fill="none" stroke="none" d="M436.4999428540468,562.4999987632036h168a5,5,0,0,1,5,5v12a5,5,0,0,1,-5,5h-168a5,5,0,0,1,-5,-5v-12a5,5,0,0,1,5,-5z" stroke-width="3"></path><g id="node_text17" fill="black"><text id="kity_text_156" text-rendering="inherit" font-size="12" dy=".8em" y="565.6999988367161" x="441.4999428540468">通过"="后是否带有.gif匹配到</text></g></g><g id="minder_node13"><g id="node_expander12" style="cursor: pointer;"><path id="kity_path_125" fill="white" stroke="gray" d="M525.9999451935291,504.4999967068434A6,6,0,1,1,513.9999451935291,504.4999967068434A6,6,0,1,1,525.9999451935291,504.4999967068434"></path><path id="kity_path_126" fill="none" stroke="gray" d="M515.4999451935291,504.4999967068434L524.4999451935291,504.4999967068434"></path></g><path id="node_outline13" fill="none" stroke="none" d="M475.4999440163374,510.49999721348286h89a5,5,0,0,1,5,5v12a5,5,0,0,1,-5,5h-89a5,5,0,0,1,-5,-5v-12a5,5,0,0,1,5,-5z" stroke-width="3"></path><g id="node_text13" fill="black"><text id="kity_text_122" text-rendering="inherit" font-size="12" dy=".8em" y="513.6999972869953" x="480.4999440163374">包含.gif的句子</text></g></g><g id="minder_node20"><g id="node_expander19" style="cursor: pointer;" display="none"><path id="kity_path_183" fill="white" stroke="gray" d="M748.999951839447,608.4999998062849A6,6,0,1,1,736.999951839447,608.4999998062849A6,6,0,1,1,748.999951839447,608.4999998062849"></path><path id="kity_path_184" fill="none" stroke="gray"></path></g><path id="node_outline20" fill="none" stroke="none" d="M695.4999505728483,614.5000003129244h95a5,5,0,0,1,5,5v12a5,5,0,0,1,-5,5h-95a5,5,0,0,1,-5,-5v-12a5,5,0,0,1,5,-5z" stroke-width="3"></path><g id="node_text20" fill="black"><text id="kity_text_180" text-rendering="inherit" font-size="12" dy=".8em" y="617.7000003864368" x="700.4999505728483">将整行写入文件</text></g></g><g id="minder_node19"><g id="node_expander18" style="cursor: pointer;"><path id="kity_path_175" fill="white" stroke="gray" d="M748.4999518245459,556.4999982565641A6,6,0,1,1,736.4999518245459,556.4999982565641A6,6,0,1,1,748.4999518245459,556.4999982565641"></path><path id="kity_path_176" fill="none" stroke="gray" d="M737.9999518245459,556.4999982565641L746.9999518245459,556.4999982565641"></path></g><path id="node_outline19" fill="none" stroke="none" d="M654.4999493509531,562.4999987632036h176a5,5,0,0,1,5,5v12a5,5,0,0,1,-5,5h-176a5,5,0,0,1,-5,-5v-12a5,5,0,0,1,5,-5z" stroke-width="3"></path><g id="node_text19" fill="black"><text id="kity_text_172" text-rendering="inherit" font-size="12" dy=".8em" y="565.6999988367161" x="659.4999493509531">通过"="后是否带有.htm匹配到</text></g></g><g id="minder_node14"><g id="node_expander13" style="cursor: pointer;"><path id="kity_path_133" fill="white" stroke="gray" d="M747.9999518096447,504.4999967068434A6,6,0,1,1,735.9999518096447,504.4999967068434A6,6,0,1,1,747.9999518096447,504.4999967068434"></path><path id="kity_path_134" fill="none" stroke="gray" d="M737.4999518096447,504.4999967068434L746.4999518096447,504.4999967068434"></path></g><path id="node_outline14" fill="none" stroke="none" d="M693.4999505132437,510.49999721348286h97a5,5,0,0,1,5,5v12a5,5,0,0,1,-5,5h-97a5,5,0,0,1,-5,-5v-12a5,5,0,0,1,5,-5z" stroke-width="3"></path><g id="node_text14" fill="black"><text id="kity_text_130" text-rendering="inherit" font-size="12" dy=".8em" y="513.6999972869953" x="698.4999505132437">包含.htm的句子</text></g></g><g id="minder_node22"><g id="node_expander21" style="cursor: pointer;" display="none"><path id="kity_path_199" fill="white" stroke="gray" d="M1008.9999595880508,604.4999996870756A6,6,0,1,1,996.9999595880508,604.4999996870756A6,6,0,1,1,1008.9999595880508,604.4999996870756"></path><path id="kity_path_200" fill="none" stroke="gray"></path></g><path id="node_outline22" fill="none" stroke="none" d="M955.4999583214521,610.5000001937151h95a5,5,0,0,1,5,5v12a5,5,0,0,1,-5,5h-95a5,5,0,0,1,-5,-5v-12a5,5,0,0,1,5,-5z" stroke-width="3"></path><g id="node_text22" fill="black"><text id="kity_text_196" text-rendering="inherit" font-size="12" dy=".8em" y="613.7000002672276" x="960.4999583214521">将整行写入文件</text></g></g><g id="minder_node16" opacity="1"><g id="node_expander15" style="cursor: pointer;"><path id="kity_path_149" fill="white" stroke="gray" d="M1008.4999595731497,552.4999981373549A6,6,0,1,1,996.4999595731497,552.4999981373549A6,6,0,1,1,1008.4999595731497,552.4999981373549"></path><path id="kity_path_150" fill="none" stroke="gray" d="M997.9999595731497,552.4999981373549L1006.9999595731497,552.4999981373549"></path></g><path id="node_outline16" fill="none" stroke="none" d="M879.4999560564756,558.4999986439943h246a5,5,0,0,1,5,5v12a5,5,0,0,1,-5,5h-246a5,5,0,0,1,-5,-5v-12a5,5,0,0,1,5,-5z" stroke-width="3"></path><g id="node_text16" fill="black"><text id="kity_text_146" text-rendering="inherit" font-size="12" dy=".8em" y="561.6999987175068" x="884.4999560564756">通过匹配"="前的内容师傅等于目标值匹配到</text></g></g><g id="minder_node15"><g id="node_expander14" style="cursor: pointer;"><path id="kity_path_141" fill="white" stroke="gray" d="M1008.9999595880508,504.4999967068434A6,6,0,1,1,996.9999595880508,504.4999967068434A6,6,0,1,1,1008.9999595880508,504.4999967068434"></path><path id="kity_path_142" fill="none" stroke="gray" d="M998.4999595880508,504.4999967068434L1007.4999595880508,504.4999967068434"></path></g><path id="node_outline15" fill="none" stroke="none" d="M973.499958857894,510.49999721348286h59a5,5,0,0,1,5,5v12a5,5,0,0,1,-5,5h-59a5,5,0,0,1,-5,-5v-12a5,5,0,0,1,5,-5z" stroke-width="3"></path><g id="node_text15" fill="black"><text id="kity_text_138" text-rendering="inherit" font-size="12" dy=".8em" y="513.6999972869953" x="978.499958857894">特殊情况</text></g></g><g id="minder_node11" opacity="1"><g id="node_expander7" style="cursor: pointer;"><path id="kity_path_99" fill="white" stroke="gray" d="M759.9999521672726,452.4999951571226A6,6,0,1,1,747.9999521672726,452.4999951571226A6,6,0,1,1,759.9999521672726,452.4999951571226"></path><path id="kity_path_100" fill="none" stroke="gray" d="M749.4999521672726,452.4999951571226L758.4999521672726,452.4999951571226"></path></g><path id="node_outline8" fill="none" stroke="none" d="M606.4999479204416,458.4999956637621h295a5,5,0,0,1,5,5v12a5,5,0,0,1,-5,5h-295a5,5,0,0,1,-5,-5v-12a5,5,0,0,1,5,-5z" stroke-width="3"></path><g id="node_text8" fill="black"><text id="kity_text_63" text-rendering="inherit" font-size="12" dy=".8em" y="461.6999957372745" x="611.4999479204416">文本中 DO NOT TRANSLATE THIS SECTION 的内容</text></g></g><g id="minder_node12" opacity="1"><g id="node_expander11" style="cursor: pointer;"><path id="kity_path_117" fill="white" stroke="gray" d="M2237.999996215105,431.49999453127384A6,6,0,1,1,2225.999996215105,431.49999453127384A6,6,0,1,1,2237.999996215105,431.49999453127384"></path><path id="kity_path_118" fill="none" stroke="gray" d="M2227.499996215105,431.49999453127384L2236.499996215105,431.49999453127384"></path></g><path id="node_outline12" fill="none" stroke="none" d="M2178.4999947696924,437.4999950379133h107a5,5,0,0,1,5,5v12a5,5,0,0,1,-5,5h-107a5,5,0,0,1,-5,-5v-12a5,5,0,0,1,5,-5z" stroke-width="3"></path><g id="node_text12" fill="black"><text id="kity_text_114" text-rendering="inherit" font-size="12" dy=".8em" y="440.6999951114257" x="2183.4999947696924">文件中需翻译的行</text></g></g><g id="kity_g_12" display="none"><path id="kity_path_13" fill="none" stroke="rgb(66, 94, 112)" d="M3011.499944344163,515.4999828785658h71a5,5,0,0,1,5,5v12a5,5,0,0,1,-5,5h-71a5,5,0,0,1,-5,-5v-12a5,5,0,0,1,5,-5z" stroke-width="5"></path></g><g id="minder_node24" opacity="1"><g id="node_expander23" style="cursor: pointer;"><path id="kity_path_216" fill="white" stroke="gray" d="M3216.5000253766775,695.500002399087A6,6,0,1,1,3204.5000253766775,695.500002399087A6,6,0,1,1,3216.5000253766775,695.500002399087"></path><path id="kity_path_217" fill="none" stroke="gray" d="M3206.0000253766775,695.500002399087L3215.0000253766775,695.500002399087"></path></g><path id="node_outline24" fill="none" stroke="none" d="M3141.500023469329,701.5000029057264h138a5,5,0,0,1,5,5v12a5,5,0,0,1,-5,5h-138a5,5,0,0,1,-5,-5v-12a5,5,0,0,1,5,-5z" stroke-width="3"></path><g id="node_text24" fill="black"><text id="kity_text_213" text-rendering="inherit" font-size="12" dy=".8em" y="704.7000029792389" x="3146.500023469329">"="后的内容无网页标记</text></g></g><g id="minder_node29"><g id="node_expander28" style="cursor: pointer;" display="none"><path id="kity_path_256" fill="white" stroke="gray" d="M1489.4999739080667,866.5000074952841A6,6,0,1,1,1477.4999739080667,866.5000074952841A6,6,0,1,1,1489.4999739080667,866.5000074952841"></path><path id="kity_path_257" fill="none" stroke="gray"></path></g><path id="node_outline29" fill="none" stroke="none" d="M1394.4999714046717,872.5000080019236h178a5,5,0,0,1,5,5v12a5,5,0,0,1,-5,5h-178a5,5,0,0,1,-5,-5v-12a5,5,0,0,1,5,-5z" stroke-width="3"></path><g id="node_text29" fill="black"><text id="kity_text_253" text-rendering="inherit" font-size="12" dy=".8em" y="875.700008075436" x="1399.4999714046717">与标记拼接到一起，写入文件中</text></g></g><g id="minder_node26"><g id="node_expander25" style="cursor: pointer;"><path id="kity_path_232" fill="white" stroke="gray" d="M1488.9999738931656,814.5000059455633A6,6,0,1,1,1476.9999738931656,814.5000059455633A6,6,0,1,1,1488.9999738931656,814.5000059455633"></path><path id="kity_path_233" fill="none" stroke="gray" d="M1478.4999738931656,814.5000059455633L1487.4999738931656,814.5000059455633"></path></g><path id="node_outline26" fill="none" stroke="none" d="M1453.4999731630087,820.5000064522028h59a5,5,0,0,1,5,5v12a5,5,0,0,1,-5,5h-59a5,5,0,0,1,-5,-5v-12a5,5,0,0,1,5,-5z" stroke-width="3"></path><g id="node_text26" fill="black"><text id="kity_text_229" text-rendering="inherit" font-size="12" dy=".8em" y="823.7000065257153" x="1458.4999731630087">文本为空</text></g></g><g id="minder_node30"><g id="node_expander29" style="cursor: pointer;" display="none"><path id="kity_path_264" fill="white" stroke="gray" d="M1717.4999807029963,866.5000074952841A6,6,0,1,1,1705.4999807029963,866.5000074952841A6,6,0,1,1,1717.4999807029963,866.5000074952841"></path><path id="kity_path_265" fill="none" stroke="gray"></path></g><path id="node_outline30" fill="none" stroke="none" d="M1622.4999781996012,872.5000080019236h178a5,5,0,0,1,5,5v12a5,5,0,0,1,-5,5h-178a5,5,0,0,1,-5,-5v-12a5,5,0,0,1,5,-5z" stroke-width="3"></path><g id="node_text30" fill="black"><text id="kity_text_261" text-rendering="inherit" font-size="12" dy=".8em" y="875.700008075436" x="1627.4999781996012">与标记拼接到一起，写入文件中</text></g></g><g id="minder_node27"><g id="node_expander26" style="cursor: pointer;"><path id="kity_path_240" fill="white" stroke="gray" d="M1716.999980688095,814.5000059455633A6,6,0,1,1,1704.999980688095,814.5000059455633A6,6,0,1,1,1716.999980688095,814.5000059455633"></path><path id="kity_path_241" fill="none" stroke="gray" d="M1706.499980688095,814.5000059455633L1715.499980688095,814.5000059455633"></path></g><path id="node_outline27" fill="none" stroke="none" d="M1675.4999797791243,820.5000064522028h71a5,5,0,0,1,5,5v12a5,5,0,0,1,-5,5h-71a5,5,0,0,1,-5,-5v-12a5,5,0,0,1,5,-5z" stroke-width="3"></path><g id="node_text27" fill="black"><text id="kity_text_237" text-rendering="inherit" font-size="12" dy=".8em" y="823.7000065257153" x="1680.4999797791243">文本为空格</text></g></g><g id="minder_node45"><g id="node_expander44" style="cursor: pointer;" display="none"><path id="kity_path_437" fill="white" stroke="gray" d="M1937.9999872744083,1087.5000140815973A6,6,0,1,1,1925.9999872744083,1087.5000140815973A6,6,0,1,1,1937.9999872744083,1087.5000140815973"></path><path id="kity_path_438" fill="none" stroke="gray"></path></g><path id="node_outline45" fill="none" stroke="none" d="M1691.4999802559614,1093.5000145882368h481a5,5,0,0,1,5,5v12a5,5,0,0,1,-5,5h-481a5,5,0,0,1,-5,-5v-12a5,5,0,0,1,5,-5z" stroke-width="3"></path><g id="node_text45" fill="black"><text id="kity_text_434" text-rendering="inherit" font-size="12" dy=".8em" y="1096.7000146617493" x="1696.4999802559614">把这个结果与网页标记、"="前面的内容、"="拼接在一起，结尾加上换行符，写入文件中</text></g></g><g id="minder_node43"><g id="node_expander42" style="cursor: pointer;"><path id="kity_path_414" fill="white" stroke="gray" d="M1937.9999872744083,1035.5000125318766A6,6,0,1,1,1925.9999872744083,1035.5000125318766A6,6,0,1,1,1937.9999872744083,1035.5000125318766"></path><path id="kity_path_415" fill="none" stroke="gray" d="M1927.4999872744083,1035.5000125318766L1936.4999872744083,1035.5000125318766"></path></g><path id="node_outline43" fill="none" stroke="none" d="M1724.499981239438,1041.500013038516h415a5,5,0,0,1,5,5v12a5,5,0,0,1,-5,5h-415a5,5,0,0,1,-5,-5v-12a5,5,0,0,1,5,-5z" stroke-width="3"></path><g id="node_text43" fill="black"><text id="kity_text_411" text-rendering="inherit" font-size="12" dy=".8em" y="1044.7000131120285" x="1729.499981239438">将待翻译文本传给机器翻译API得到翻译结果，转义字符处为空，拼接在一起</text></g></g><g id="minder_node41" opacity="1"><g id="node_expander38" style="cursor: pointer;"><path id="kity_path_389" fill="white" stroke="gray" d="M1937.4999872595072,983.5000109821558A6,6,0,1,1,1925.4999872595072,983.5000109821558A6,6,0,1,1,1937.4999872595072,983.5000109821558"></path><path id="kity_path_390" fill="none" stroke="gray" d="M1926.9999872595072,983.5000109821558L1935.9999872595072,983.5000109821558"></path></g><path id="node_outline39" fill="none" stroke="none" d="M1872.4999856501818,989.5000114887953h118a5,5,0,0,1,5,5v12a5,5,0,0,1,-5,5h-118a5,5,0,0,1,-5,-5v-12a5,5,0,0,1,5,-5z" stroke-width="3"></path><g id="node_text39" fill="black"><text id="kity_text_372" text-rendering="inherit" font-size="12" dy=".8em" y="992.7000115623077" x="1877.4999856501818">无转义字符的纯文本</text></g></g><g id="minder_node46"><g id="node_expander45" style="cursor: pointer;" display="none"><path id="kity_path_445" fill="white" stroke="gray" d="M2468.000003069639,1087.5000140815973A6,6,0,1,1,2456.000003069639,1087.5000140815973A6,6,0,1,1,2468.000003069639,1087.5000140815973"></path><path id="kity_path_446" fill="none" stroke="gray"></path></g><path id="node_outline46" fill="none" stroke="none" d="M2221.4999960511923,1093.5000145882368h481a5,5,0,0,1,5,5v12a5,5,0,0,1,-5,5h-481a5,5,0,0,1,-5,-5v-12a5,5,0,0,1,5,-5z" stroke-width="3"></path><g id="node_text46" fill="black"><text id="kity_text_442" text-rendering="inherit" font-size="12" dy=".8em" y="1096.7000146617493" x="2226.4999960511923">把这个结果和网页标记、"="前面的内容、"="拼接在一起，结尾加上换行符，写入文件中</text></g></g><g id="minder_node42" opacity="1"><g id="node_expander41" style="cursor: pointer;"><path id="kity_path_406" fill="white" stroke="gray" d="M2468.000003069639,1035.5000125318766A6,6,0,1,1,2456.000003069639,1035.5000125318766A6,6,0,1,1,2468.000003069639,1035.5000125318766"></path><path id="kity_path_407" fill="none" stroke="gray" d="M2457.500003069639,1035.5000125318766L2466.500003069639,1035.5000125318766"></path></g><path id="node_outline42" fill="none" stroke="none" d="M2272.4999975711107,1041.500013038516h379a5,5,0,0,1,5,5v12a5,5,0,0,1,-5,5h-379a5,5,0,0,1,-5,-5v-12a5,5,0,0,1,5,-5z" stroke-width="3"></path><g id="node_text42" fill="black"><text id="kity_text_403" text-rendering="inherit" font-size="12" dy=".8em" y="1044.7000131120285" x="2277.4999975711107">将待翻译文本传给机器翻译API，得到翻译结果与转义字符拼接到一起</text></g></g><g id="minder_node39" opacity="1"><g id="node_expander37" style="cursor: pointer;"><path id="kity_path_386" fill="white" stroke="gray" d="M2468.000003069639,983.5000109821558A6,6,0,1,1,2456.000003069639,983.5000109821558A6,6,0,1,1,2468.000003069639,983.5000109821558"></path><path id="kity_path_387" fill="none" stroke="gray" d="M2457.500003069639,983.5000109821558L2466.500003069639,983.5000109821558"></path></g><path id="node_outline38" fill="none" stroke="none" d="M2426.5000021606684,989.5000114887953h71a5,5,0,0,1,5,5v12a5,5,0,0,1,-5,5h-71a5,5,0,0,1,-5,-5v-12a5,5,0,0,1,5,-5z" stroke-width="3"></path><g id="node_text38" fill="black"><text id="kity_text_370" text-rendering="inherit" font-size="12" dy=".8em" y="992.7000115623077" x="2431.5000021606684">有转义字符</text></g></g><g id="minder_node44"><g id="node_expander43" style="cursor: pointer;"><path id="kity_path_422" fill="white" stroke="gray" d="M2190.999994814396,931.500009432435A6,6,0,1,1,2178.999994814396,931.500009432435A6,6,0,1,1,2190.999994814396,931.500009432435"></path><path id="kity_path_423" fill="none" stroke="gray" d="M2180.499994814396,931.500009432435L2189.499994814396,931.500009432435"></path></g><path id="node_outline44" fill="none" stroke="none" d="M2050.499990954995,937.5000099390745h269a5,5,0,0,1,5,5v12a5,5,0,0,1,-5,5h-269a5,5,0,0,1,-5,-5v-12a5,5,0,0,1,5,-5z" stroke-width="3"></path><g id="node_text44" fill="black"><text id="kity_text_419" text-rendering="inherit" font-size="12" dy=".8em" y="940.700010012587" x="2055.499990954995">用group()将待翻译文本和要保留的转义字符分离</text></g></g><g id="minder_node38" opacity="1"><g id="node_expander39" style="cursor: pointer;"><path id="kity_path_392" fill="white" stroke="gray" d="M2190.999994814396,879.5000078827143A6,6,0,1,1,2178.999994814396,879.5000078827143A6,6,0,1,1,2190.999994814396,879.5000078827143"></path><path id="kity_path_393" fill="none" stroke="gray" d="M2180.499994814396,879.5000078827143L2189.499994814396,879.5000078827143"></path></g><path id="node_outline40" fill="none" stroke="none" d="M1925.4999872297049,885.5000083893538h519a5,5,0,0,1,5,5v12a5,5,0,0,1,-5,5h-519a5,5,0,0,1,-5,-5v-12a5,5,0,0,1,5,-5z" stroke-width="3"></path><g id="node_text40" fill="black"><text id="kity_text_374" text-rendering="inherit" font-size="12" dy=".8em" y="888.7000084628662" x="1930.4999872297049">用正则表达式匹配是否含有转义字符并进行翻译处理（自己创建了ZhuanyiTrans类，进行处理）</text></g></g><g id="minder_node28" opacity="1"><g id="node_expander27" style="cursor: pointer;"><path id="kity_path_248" fill="white" stroke="gray" d="M2190.999994814396,827.5000063329935A6,6,0,1,1,2178.999994814396,827.5000063329935A6,6,0,1,1,2190.999994814396,827.5000063329935"></path><path id="kity_path_249" fill="none" stroke="gray" d="M2180.499994814396,827.5000063329935L2189.499994814396,827.5000063329935"></path></g><path id="node_outline28" fill="none" stroke="none" d="M2149.499993905425,833.500006839633h71a5,5,0,0,1,5,5v12a5,5,0,0,1,-5,5h-71a5,5,0,0,1,-5,-5v-12a5,5,0,0,1,5,-5z" stroke-width="3"></path><g id="node_text28" fill="black"><text id="kity_text_245" text-rendering="inherit" font-size="12" dy=".8em" y="836.7000069131454" x="2154.499993905425">文本有内容</text></g></g><g id="minder_node25"><g id="node_expander24" style="cursor: pointer;"><path id="kity_path_224" fill="white" stroke="gray" d="M1922.9999868273735,762.5000043958426A6,6,0,1,1,1910.9999868273735,762.5000043958426A6,6,0,1,1,1922.9999868273735,762.5000043958426"></path><path id="kity_path_225" fill="none" stroke="gray" d="M1912.4999868273735,762.5000043958426L1921.4999868273735,762.5000043958426"></path></g><path id="node_outline25" fill="none" stroke="none" d="M1734.4999815374613,768.500004902482h365a5,5,0,0,1,5,5v12a5,5,0,0,1,-5,5h-365a5,5,0,0,1,-5,-5v-12a5,5,0,0,1,5,-5z" stroke-width="3"></path><g id="node_text25" fill="black"><text id="kity_text_221" text-rendering="inherit" font-size="12" dy=".8em" y="771.7000049759945" x="1739.4999815374613">用正则表达式匹配，用group()将待翻译的文本和要保留的标记分离</text></g></g><g id="minder_node23" opacity="1"><g id="node_expander22" style="cursor: pointer;"><path id="kity_path_208" fill="white" stroke="gray" d="M1922.4999868124723,710.5000028461218A6,6,0,1,1,1910.4999868124723,710.5000028461218A6,6,0,1,1,1922.4999868124723,710.5000028461218"></path><path id="kity_path_209" fill="none" stroke="gray" d="M1911.9999868124723,710.5000028461218L1920.9999868124723,710.5000028461218"></path></g><path id="node_outline23" fill="none" stroke="none" d="M1796.4999833852053,716.5000033527613h240a5,5,0,0,1,5,5v12a5,5,0,0,1,-5,5h-240a5,5,0,0,1,-5,-5v-12a5,5,0,0,1,5,-5z" stroke-width="3"></path><g id="node_text23" fill="black"><text id="kity_text_205" text-rendering="inherit" font-size="12" dy=".8em" y="719.7000034262737" x="1801.4999833852053">识别"="后的内容有网页标记（&lt;&gt;等内容）</text></g></g><g id="minder_node36"><g id="node_expander35" style="cursor: pointer;"><path id="kity_path_322" fill="white" stroke="gray" d="M2238.499996230006,483.4999960809946A6,6,0,1,1,2226.499996230006,483.4999960809946A6,6,0,1,1,2238.499996230006,483.4999960809946"></path><path id="kity_path_323" fill="none" stroke="gray" d="M2227.999996230006,483.4999960809946L2236.999996230006,483.4999960809946"></path></g><path id="node_outline36" fill="none" stroke="none" d="M1876.499985769391,489.4999965876341h712a5,5,0,0,1,5,5v12a5,5,0,0,1,-5,5h-712a5,5,0,0,1,-5,-5v-12a5,5,0,0,1,5,-5z" stroke-width="3"></path><g id="node_text36" fill="black"><text id="kity_text_319" text-rendering="inherit" font-size="12" dy=".8em" y="492.6999966611465" x="1881.499985769391">用自己创建的Preparation类将文本转化为raw string，方便后面识别转义字符；用正则表达式识别，用group()将"="两侧的内容分离</text></g></g><g id="minder_node55"><g id="node_expander54" style="cursor: pointer;" display="none"><path id="kity_path_519" fill="white" stroke="gray" d="M2981.5000183731318,1004.5000116080046A6,6,0,1,1,2969.5000183731318,1004.5000116080046A6,6,0,1,1,2981.5000183731318,1004.5000116080046"></path><path id="kity_path_520" fill="none" stroke="gray"></path></g><path id="node_outline55" fill="none" stroke="none" d="M2764.5000122338533,1010.500012114644h422a5,5,0,0,1,5,5v12a5,5,0,0,1,-5,5h-422a5,5,0,0,1,-5,-5v-12a5,5,0,0,1,5,-5z" stroke-width="3"></path><g id="node_text55" fill="black"><text id="kity_text_516" text-rendering="inherit" font-size="12" dy=".8em" y="1013.7000121881565" x="2769.5000122338533">把这个结果与"="前面的内容、"="拼接在一起，结尾加上换行符，写入文件中</text></g></g><g id="minder_node54"><g id="node_expander53" style="cursor: pointer;"><path id="kity_path_511" fill="white" stroke="gray" d="M2981.0000183582306,952.5000100582838A6,6,0,1,1,2969.0000183582306,952.5000100582838A6,6,0,1,1,2981.0000183582306,952.5000100582838"></path><path id="kity_path_512" fill="none" stroke="gray" d="M2970.5000183582306,952.5000100582838L2979.5000183582306,952.5000100582838"></path></g><path id="node_outline54" fill="none" stroke="none" d="M2767.5000123232603,958.5000105649233h415a5,5,0,0,1,5,5v12a5,5,0,0,1,-5,5h-415a5,5,0,0,1,-5,-5v-12a5,5,0,0,1,5,-5z" stroke-width="3"></path><g id="node_text54" fill="black"><text id="kity_text_508" text-rendering="inherit" font-size="12" dy=".8em" y="961.7000106384357" x="2772.5000123232603">将待翻译文本传给机器翻译API得到翻译结果，转义字符处为空，拼接在一起</text></g></g><g id="minder_node49"><g id="node_expander48" style="cursor: pointer;"><path id="kity_path_469" fill="white" stroke="gray" d="M2980.5000183433294,900.500008508563A6,6,0,1,1,2968.5000183433294,900.500008508563A6,6,0,1,1,2980.5000183433294,900.500008508563"></path><path id="kity_path_470" fill="none" stroke="gray" d="M2970.0000183433294,900.500008508563L2979.0000183433294,900.500008508563"></path></g><path id="node_outline49" fill="none" stroke="none" d="M2939.5000174492598,906.5000090152025h70a5,5,0,0,1,5,5v12a5,5,0,0,1,-5,5h-70a5,5,0,0,1,-5,-5v-12a5,5,0,0,1,5,-5z" stroke-width="3"></path><g id="node_text49" fill="black"><text id="kity_text_466" text-rendering="inherit" font-size="12" dy=".8em" y="909.700009088715" x="2944.5000174492598">无转义字符</text></g></g><g id="minder_node53"><g id="node_expander52" style="cursor: pointer;" display="none"><path id="kity_path_501" fill="white" stroke="gray" d="M3452.0000323951244,1004.5000116080046A6,6,0,1,1,3440.0000323951244,1004.5000116080046A6,6,0,1,1,3452.0000323951244,1004.5000116080046"></path><path id="kity_path_502" fill="none" stroke="gray"></path></g><path id="node_outline53" fill="none" stroke="none" d="M3235.500026270747,1010.500012114644h421a5,5,0,0,1,5,5v12a5,5,0,0,1,-5,5h-421a5,5,0,0,1,-5,-5v-12a5,5,0,0,1,5,-5z" stroke-width="3"></path><g id="node_text53" fill="black"><text id="kity_text_498" text-rendering="inherit" font-size="12" dy=".8em" y="1013.7000121881565" x="3240.500026270747">把这个结果和"="前面的内容、"="拼接在一起，结尾加上换行符，写入文件中</text></g></g><g id="minder_node52" opacity="1"><g id="node_expander51" style="cursor: pointer;"><path id="kity_path_493" fill="white" stroke="gray" d="M3452.0000323951244,952.5000100582838A6,6,0,1,1,3440.0000323951244,952.5000100582838A6,6,0,1,1,3452.0000323951244,952.5000100582838"></path><path id="kity_path_494" fill="none" stroke="gray" d="M3441.5000323951244,952.5000100582838L3450.5000323951244,952.5000100582838"></path></g><path id="node_outline52" fill="none" stroke="none" d="M3256.500026896596,958.5000105649233h379a5,5,0,0,1,5,5v12a5,5,0,0,1,-5,5h-379a5,5,0,0,1,-5,-5v-12a5,5,0,0,1,5,-5z" stroke-width="3"></path><g id="node_text52" fill="black"><text id="kity_text_490" text-rendering="inherit" font-size="12" dy=".8em" y="961.7000106384357" x="3261.500026896596">将待翻译文本传给机器翻译API，得到翻译结果与转义字符拼接到一起</text></g></g><g id="minder_node50"><g id="node_expander49" style="cursor: pointer;"><path id="kity_path_477" fill="white" stroke="gray" d="M3452.0000323951244,900.500008508563A6,6,0,1,1,3440.0000323951244,900.500008508563A6,6,0,1,1,3452.0000323951244,900.500008508563"></path><path id="kity_path_478" fill="none" stroke="gray" d="M3441.5000323951244,900.500008508563L3450.5000323951244,900.500008508563"></path></g><path id="node_outline50" fill="none" stroke="none" d="M3410.5000314861536,906.5000090152025h71a5,5,0,0,1,5,5v12a5,5,0,0,1,-5,5h-71a5,5,0,0,1,-5,-5v-12a5,5,0,0,1,5,-5z" stroke-width="3"></path><g id="node_text50" fill="black"><text id="kity_text_474" text-rendering="inherit" font-size="12" dy=".8em" y="909.700009088715" x="3415.5000314861536">有转义字符</text></g></g><g id="minder_node48"><g id="node_expander47" style="cursor: pointer;"><path id="kity_path_461" fill="white" stroke="gray" d="M3216.0000253617764,848.5000069588423A6,6,0,1,1,3204.0000253617764,848.5000069588423A6,6,0,1,1,3216.0000253617764,848.5000069588423"></path><path id="kity_path_462" fill="none" stroke="gray" d="M3205.5000253617764,848.5000069588423L3214.5000253617764,848.5000069588423"></path></g><path id="node_outline48" fill="none" stroke="none" d="M3075.5000215023756,854.5000074654818h269a5,5,0,0,1,5,5v12a5,5,0,0,1,-5,5h-269a5,5,0,0,1,-5,-5v-12a5,5,0,0,1,5,-5z" stroke-width="3"></path><g id="node_text48" fill="black"><text id="kity_text_458" text-rendering="inherit" font-size="12" dy=".8em" y="857.7000075389942" x="3080.5000215023756">用group()将待翻译文本和要保留的转义字符分离</text></g></g><g id="minder_node47" opacity="1"><g id="node_expander46" style="cursor: pointer;"><path id="kity_path_453" fill="white" stroke="gray" d="M3216.0000253617764,796.5000054091215A6,6,0,1,1,3204.0000253617764,796.5000054091215A6,6,0,1,1,3216.0000253617764,796.5000054091215"></path><path id="kity_path_454" fill="none" stroke="gray" d="M3205.5000253617764,796.5000054091215L3214.5000253617764,796.5000054091215"></path></g><path id="node_outline47" fill="none" stroke="none" d="M2950.5000177770853,802.500005915761h519a5,5,0,0,1,5,5v12a5,5,0,0,1,-5,5h-519a5,5,0,0,1,-5,-5v-12a5,5,0,0,1,5,-5z" stroke-width="3"></path><g id="node_text47" fill="black"><text id="kity_text_450" text-rendering="inherit" font-size="12" dy=".8em" y="805.7000059892734" x="2955.5000177770853">用正则表达式匹配是否含有转义字符并进行翻译处理（自己创建了ZhuanyiTrans类，进行处理）</text></g></g></g></g></svg>